<?xml version="1.0" encoding="UTF-8"?>
<svg id="Calque_1" data-name="Calque 1" xmlns="http://www.w3.org/2000/svg" viewBox="0 0 481.29 170.68">
  <defs>
    <style>
      .cls-1 {
        fill: #570ef8;
      }

      .cls-2 {
        fill: #d926aa;
      }
    </style>
  </defs>
  <path class="cls-1" d="m44.74,8.9v157.84H0V8.9h44.74Zm68.55,42.55l-21.89,41.98,32.54,73.31h-49.53l-27.99-75.28,20.34-40.01h46.54Z"/>
  <path class="cls-1" d="m176.82,51.46v115.29h-44.74V51.46h44.74ZM154.57,0c6.06,0,11.31,2.06,15.73,6.19,4.43,4.13,6.64,9,6.64,14.63,0,6.01-2.09,10.95-6.28,14.8-4.19,3.86-9.55,5.78-16.09,5.78s-11.9-1.93-16.09-5.78c-4.19-3.85-6.28-8.79-6.28-14.8,0-5.63,2.21-10.5,6.64-14.63,4.43-4.12,9.67-6.19,15.73-6.19Z"/>
  <path class="cls-1" d="m242.98,8.9v44.17h20.1v45.68h-20.1c0,9.18,1.5,15.5,4.49,18.96,2.99,3.47,8.47,5.2,16.45,5.2v45.44c-2.31.08-4.03.12-5.14.12-10.13,0-19.68-2.27-28.65-6.82-8.97-4.55-16.17-10.71-21.59-18.5-6.86-9.94-10.29-23.13-10.29-39.55V8.9h44.74Z"/>
  <path class="cls-2" d="m403.17,8.9v102.34c0,18.04-5.56,32.46-16.69,43.25-11.13,10.79-25.94,16.19-44.44,16.19s-32.52-5.24-42.29-15.73c-9.77-10.48-14.66-25.56-14.66-45.21V8.9h48.57v100.72c0,9.64,3.55,14.45,10.65,14.45s10.29-4.82,10.29-14.45V8.9h48.57Z"/>
  <path class="cls-2" d="m481.29,8.9v157.84h-48.57V8.9h48.57Z"/>
</svg>